<svg xmlns="http://www.w3.org/2000/svg" xmlns:xlink="http://www.w3.org/1999/xlink" version="1.1" width="256" height="256" viewBox="0 0 256 256" xml:space="preserve">

<defs>
</defs>
<g style="stroke: none; strokeWidth: 0; stroke-dasharray: none; strokeLinecap: butt; strokeLinejoin: miter; stroke-miterlimit: 10; fill: none; fillRule: nonzero; opacity: 1;" transform="translate(1.4065934065934016 1.4065934065934016) scale(2.81 2.81)" >
	<path d="M 78.673 90 H 11.327 C 5.071 90 0 84.929 0 78.673 V 11.327 C 0 5.071 5.071 0 11.327 0 h 67.347 C 84.929 0 90 5.071 90 11.327 v 67.347 C 90 84.929 84.929 90 78.673 90 z" style="stroke: none; strokeWidth: 1; stroke-dasharray: none; strokeLinecap: butt; strokeLinejoin: miter; stroke-miterlimit: 10; fill: rgb(232,232,232); fillRule: nonzero; opacity: 1;" transform=" matrix(1 0 0 1 0 0) " strokeLinecap="round" />
	<path d="M 90 43.069 L 68.081 27.721 L 20.75 61.714 L 61.147 90 h 17.527 C 84.929 90 90 84.929 90 78.673 V 43.069 z" style="stroke: none; strokeWidth: 1; stroke-dasharray: none; strokeLinecap: butt; strokeLinejoin: miter; stroke-miterlimit: 10; fill: rgb(219,219,219); fillRule: nonzero; opacity: 1;" transform=" matrix(1 0 0 1 0 0) " strokeLinecap="round" />
	<path d="M 71.351 31.762 c -0.632 -2.366 -2.496 -4.23 -4.863 -4.863 C 62.199 25.75 45 25.75 45 25.75 s -17.199 0 -21.488 1.149 c -2.366 0.632 -4.23 2.496 -4.863 4.863 C 17.5 36.051 17.5 45 17.5 45 s 0 8.949 1.149 13.238 c 0.632 2.366 2.496 4.23 4.863 4.863 c 3.116 0.835 13.045 1.064 18.244 1.126 C 43.713 64.25 45 64.25 45 64.25 s 0.484 0 1.31 -0.005 c 0.533 -0.004 1.208 -0.009 1.988 -0.019 c 5.213 -0.063 15.085 -0.293 18.19 -1.125 c 2.366 -0.633 4.23 -2.496 4.863 -4.863 C 72.5 53.949 72.5 45 72.5 45 S 72.5 36.051 71.351 31.762 z" style="stroke: none; strokeWidth: 1; stroke-dasharray: none; strokeLinecap: butt; strokeLinejoin: miter; stroke-miterlimit: 10; fill: rgb(254,0,1); fillRule: nonzero; opacity: 1;" transform=" matrix(1 0 0 1 0 0) " strokeLinecap="round" />
	<polygon points="39.5,53.25 53.79,45 39.5,36.75 " style="stroke: none; strokeWidth: 1; stroke-dasharray: none; strokeLinecap: butt; strokeLinejoin: miter; stroke-miterlimit: 10; fill: rgb(255,255,255); fillRule: nonzero; opacity: 1;" transform="  matrix(1 0 0 1 0 0) "/>
</g>
</svg>